<svg id="Слой_1" data-name="Слой 1" xmlns="http://www.w3.org/2000/svg" xmlns:xlink="http://www.w3.org/1999/xlink" viewBox="0 0 60 160"><defs><style>.cls-1{fill:none;}.cls-2{clip-path:url(#clip-path);}.cls-3{fill:#513f3f;}.cls-4{fill:#ff8e72;}.cls-5{fill:#ffae3b;}.cls-13,.cls-6{fill:#ffae79;}.cls-7{fill:#ffac89;}.cls-8{fill:#fff;}.cls-9{fill:#eee;}.cls-10{fill:#ff4d4d;}.cls-11{fill:#ffe2d1;}.cls-12{fill:#363332;}.cls-13{opacity:0.38;}.cls-14{fill:#ffd557;}.cls-15{fill:#ffb72b;}.cls-16{fill:#ffab0b;}.cls-17{fill:#ffa16c;}.cls-18{fill:#ff9d81;}.cls-19{fill:#f87956;}.cls-20{fill:#ffdfc9;}.cls-21{fill:#ffcfbc;}.cls-22{fill:#52433b;}</style><clipPath id="clip-path"><rect class="cls-1" x="0.26" y="0.37" width="59.74" height="159.63"/></clipPath></defs><title>для тестов</title><g class="cls-2"><polygon class="cls-3" points="30.05 125.19 30.13 160.85 0.01 160.85 0.01 126.84 30.05 125.19"/><path class="cls-4" d="M27.34,91.44s9.59,5.9,14.35-8.48c2.16-6.53,3.14-10.18,3.14-10.18s7.25-.27,10.46,5.85A50.15,50.15,0,0,1,42.27,99c-9.61,8.83-18.74-1.85-18.74-1.85Z"/><path class="cls-5" d="M40.82,57a6.74,6.74,0,0,0-4.88-3.68c-3.7-.76-13.78-2.11-16.34-1.84a11.93,11.93,0,0,0-4.35,1.31l-5.76-15L12.59,17l4.64-7.07,19.71,1.7L42,14.28l4.06,15s.55,16.74.18,17.9S40.82,57,40.82,57Z"/><circle class="cls-6" cx="15.44" cy="34.17" r="3.84" transform="translate(-2.81 1.42) rotate(-4.81)"/><path class="cls-7" d="M27.64,55.41,38.58,82.73a5.7,5.7,0,0,1-1,5.87c-2.76,3.16-5.88,10.32-6.67,14.95-1,5.6-.85,28.06-.85,28.06L0,126.85s1.78-27,7.56-44C14.9,61.24,22,53.28,22,53.28Z"/><polygon class="cls-8" points="17.45 60.16 32.41 74.81 31.93 64.81 28.82 56.11 27.34 59.61 21.52 53.5 17.45 60.16"/><polygon class="cls-9" points="27.34 59.61 24.64 67.37 17.45 60.16 21.52 53.5 27.34 59.61"/><polygon class="cls-9" points="31.71 64.22 27.34 59.61 28.16 56.72 31.71 64.22"/><polygon class="cls-10" points="25.55 63.92 28.23 66.51 30.22 66.12 30.91 63.38 27.34 59.61 25.55 63.92"/><polygon class="cls-10" points="28.23 66.51 27.85 70.34 32.41 74.81 32.08 69.04 30.22 66.12 28.23 66.51"/><polygon class="cls-11" points="30.99 46.51 27.34 59.61 21.52 53.5 23.61 43.85 30.99 46.51"/><path class="cls-11" d="M40.63,14.59s.21,30.11.18,31.78c0,.89-5.78,2.35-10.13,2.1s-13.17-4.3-13.17-4.3L15.36,14.79,28.5,9.6Z"/><ellipse class="cls-12" cx="23.19" cy="24.46" rx="3.77" ry="2.86" transform="translate(-6.15 41.06) rotate(-76.04)"/><circle class="cls-8" cx="21.37" cy="22.03" r="1.74" transform="translate(-0.99 43.05) rotate(-89.1)"/><path class="cls-13" d="M40.63,14.59s.21,30.11.18,31.78c0,.8-5,2.17-9.27,2.14-.45,0-.5-37.86-.5-37.86Z"/><ellipse class="cls-12" cx="36.44" cy="24.39" rx="3.44" ry="2.48" transform="translate(3.97 53.87) rotate(-76.04)"/><circle class="cls-8" cx="35.46" cy="21.77" r="1.61" transform="translate(13.13 56.89) rotate(-89.1)"/><path class="cls-14" d="M38.61,64.44S45,47.3,44,33.88s-3.33-19.29-3.33-19.29a28.81,28.81,0,0,0-9.41-.94c-5.75.26-15.84,1.57-15.8,2.05s-.14,11.76.11,18,.61,30.35.61,30.35S9.28,56.95,6,54.51a41,41,0,0,1-5.75-5.3S.81,31.8,5.18,19.68,17.86,3.16,20.38,2,32-2.36,37.49,3.12s7.91,13.77,9.19,20.41S49,47.81,48.55,52.46,38.61,64.44,38.61,64.44Z"/><polygon class="cls-6" points="31.29 26.53 31.13 36.46 34.63 35.29 31.29 26.53"/><path class="cls-15" d="M40.4,16.88l-6.86-1.21s1.47-2.46,3.92-2.19S40.31,16.09,40.4,16.88Z"/><path class="cls-16" d="M25.81,16.38l-7.57,1.41s.9-3.38,3.39-4S25.4,15.54,25.81,16.38Z"/><path class="cls-17" d="M25.05,39.8l11.88-.62s-1.37,4.17-5.64,4.28A6.32,6.32,0,0,1,25.05,39.8Z"/><path class="cls-18" d="M32.48,109.39s2.52.41,3.28,6a9.56,9.56,0,0,1-1.14,6.06S18,125.65,9.82,118.59C1,111.05.78,91.95,4.49,79.77c4-13.26,13-19.61,13-19.61S12.39,76.88,11.6,85.63c-.4,4.49.61,17.3,5.41,21.63C22.57,112.26,26.43,109.72,32.48,109.39Z"/><path class="cls-19" d="M34.15,42.65a4,4,0,0,0-2.92-3.17l-6.17.32A6.44,6.44,0,0,0,28.33,43a6.64,6.64,0,0,0,5.82-.33Z"/><polygon class="cls-8" points="35.36 92.38 54.85 88.4 56.37 128.19 35.33 130.46 35.36 92.38"/><path class="cls-20" d="M31.79,109.3s2-4.56,2-5.33,1.6-.57,1.6-.57v3.72l10.89-1.49,1.17,2.68-4.23,1.75.59,0,4.86-1.11.61,2-4.95,1.62,3.43-.7.67,2.78-2.89.58,2,.18-.09,1.81-12.77,4.35Z"/><path class="cls-21" d="M46.2,73l2-8.18a.47.47,0,0,1,.62-.33l2.38.89L51,66.83l.34.13.76-1.28,2.3.86a.47.47,0,0,1,.27.62s-1,2.6-.56,2.65L55,70a.47.47,0,0,1,.4.48l0,2.13A.47.47,0,0,1,55,73l-.15,0c-.33.11-.39.32-.15.57l2.57,1.2a.47.47,0,0,1,0,.69l-3.73,3.4a1.16,1.16,0,0,1-1.28-.18l-5.91-5.3A.47.47,0,0,1,46.2,73Z"/><polygon class="cls-22" points="57.89 75.66 37.33 62.34 36.03 57.78 58.59 74.56 60 76.4 57.89 75.66"/><path class="cls-22" d="M37.15,61.73s-6.48-4.4-5.31-4.94,4.57,2.37,4.57,2.37Z"/><path class="cls-11" d="M46.2,73.2s3.92-6,5.34-5.71,1.33,2.77.77,4-2.41,5.11-2.41,5.11Z"/></g></svg>