<svg id="Слой_1" data-name="Слой 1" xmlns="http://www.w3.org/2000/svg" xmlns:xlink="http://www.w3.org/1999/xlink" viewBox="0 0 60 60"><defs><style>.cls-1,.cls-22{fill:none;}.cls-2{clip-path:url(#clip-path);}.cls-3{fill:#ffc9a4;}.cls-4{fill:#f49d82;}.cls-5{fill:#ffab8a;}.cls-6{fill:#fff;}.cls-7{fill:#f4ad47;}.cls-11,.cls-8{fill:#f3ae7b;}.cls-9{fill:#ffe2d2;}.cls-10{fill:#383635;}.cls-11{opacity:0.38;}.cls-12{fill:#ffd561;}.cls-13{fill:#f8b73d;}.cls-14{fill:#f1aa2b;}.cls-15{fill:#ddd2ce;}.cls-16{fill:#e24e4e;}.cls-17{fill:#aa3737;}.cls-18{fill:#c94b4b;}.cls-19{fill:#a83636;}.cls-20{fill:#842121;}.cls-21{fill:#ffa16c;}.cls-22{stroke:#922;stroke-miterlimit:10;}.cls-23{fill:#f87956;}</style><clipPath id="clip-path"><rect class="cls-1" width="59.9" height="59.9"/></clipPath></defs><title>для тестов</title><g class="cls-2"><polygon class="cls-3" points="41.29 31.41 42.39 31.6 50.12 40.9 46.12 44.01 41.29 31.41"/><path class="cls-4" d="M41.69,46.89s7,5.77,7,17.45-13.53,15-13.53,15l-.56,12.44s13.21-4.22,16.84-8.16C57.5,77,61.5,66.32,59.42,57s-9.29-16.1-9.29-16.1Z"/><path class="cls-5" d="M19.62,47.4S14.86,52.47,8.86,67s-4.42,57.53-4.42,57.53,30.29.51,31.5.49c0,0-.23-37.27-.23-45.86C35.72,75.82,38,69,38,68.24S26.08,48.89,26.08,48.89Z"/><path class="cls-6" d="M15.76,52.94l16,19.48V57.74l-5.64-8.85-.58,3.49-5.88-5S16.25,52.11,15.76,52.94Z"/><path class="cls-7" d="M35.4,49.45A6,6,0,0,0,31,46.14c-3.23-.58-12-1.56-14.22-1.28a10.36,10.36,0,0,0-3.75,1.22L7.78,33.2l2.3-18.11L14,8.87,31.1,10l4.45,2.19,3.82,13s.8,14.52.51,15.53S35.4,49.45,35.4,49.45Z"/><circle class="cls-8" cx="12.88" cy="29.93" r="3.33" transform="translate(-3.11 1.54) rotate(-6.1)"/><polygon class="cls-9" points="27.54 40.13 25.5 52.38 19.62 47.4 20.58 38.44 27.54 40.13"/><path class="cls-9" d="M34.36,12.44s.77,26.13.78,27.57c0,.77-5,2.15-8.75,2s-11.51-3.48-11.51-3.48L12.43,13.11,23.74,8.35Z"/><ellipse class="cls-10" cx="19.32" cy="21.33" rx="2.58" ry="3.27" transform="translate(-0.14 0.13) rotate(-0.39)"/><circle class="cls-6" cx="21.25" cy="19.3" r="1.51" transform="translate(-0.13 0.14) rotate(-0.39)"/><path class="cls-11" d="M34.36,12.44s.77,26.13.78,27.57c0,.7-4,1.88-7.61,2C27.14,42.05,26,9.21,26,9.21Z"/><ellipse class="cls-10" cx="30.91" cy="21.03" rx="2.16" ry="2.99" transform="translate(-0.14 0.21) rotate(-0.39)"/><circle class="cls-6" cx="32.45" cy="19.11" r="1.4" transform="translate(-0.13 0.22) rotate(-0.39)"/><path class="cls-12" d="M33.58,55.75s5.19-15,4.05-26.63-3.27-16.67-3.27-16.67a25,25,0,0,0-8.18-.63c-5,.34-13.71,1.67-13.67,2.09s.11,10.21.45,15.65,1.12,26.33,1.12,26.33a113.8,113.8,0,0,0-9-8.12A35.56,35.56,0,0,1,0,43.28S.14,28.16,3.69,17.55,14.38,3,16.54,1.9s10-4,14.87.66,7.13,11.79,8.38,17.53,2.46,21,2.19,25.07S33.58,55.75,33.58,55.75Z"/><polygon class="cls-8" points="26.44 22 26.81 30.62 29.51 29.54 26.44 22"/><path class="cls-13" d="M33.68,14.86,28.33,12s1.87-1.64,3.82-.76A3,3,0,0,1,33.68,14.86Z"/><path class="cls-14" d="M20.64,13.45l-6.1,2.73s.07-3,2-4.09S20.13,12.83,20.64,13.45Z"/><path class="cls-15" d="M25.5,52.38l-4.91,6.44-4.82-5.88s1.19-2,1.92-3,1.93-2.53,1.93-2.53Z"/><path class="cls-15" d="M26.08,48.89s2.1,2.69,2.71,3.68,2.93,5.16,2.93,5.16L25.5,52.38Z"/><polygon class="cls-16" points="22.82 55.88 26.02 58.82 28.68 58.38 29.21 55.44 25.5 52.38 22.82 55.88"/><polygon class="cls-16" points="26.02 58.82 24.6 63.84 31.71 72.41 31.71 62.36 28.68 58.38 26.02 58.82"/><path class="cls-4" d="M15.76,52.94S7.6,67.46,5.28,74.6A131.68,131.68,0,0,0,1.46,91l8.87,0s-.13-11.6,1.74-19.27C14.52,61.64,17,54.47,17,54.47Z"/><polygon class="cls-17" points="45.05 44.62 43.49 45 43.58 46.24 44.03 48.13 44.94 47.82 45.05 44.62"/><path class="cls-18" d="M34.71,24.39s4.11,4.26,6.16,6.55a49.1,49.1,0,0,1,3.2,4l-2.55,5.5-6.59-8.11Z"/><path class="cls-18" d="M44.07,34.92a16.81,16.81,0,0,1,2.58,5.36c.21,1.64.63,5.32-5,6.6-3.11.71-5.53-.19-6.83-2.32-1.53-2.51-1.34-4.24.16-6.33S41,37,41,37,43.32,33.93,44.07,34.92Z"/><path class="cls-19" d="M34.85,40.55c.29-1.92,1.21-3,3.08-2.76,2.47.29,4.66,3.47,4.12,5.74a2.88,2.88,0,0,1-3.63,2.29A4.72,4.72,0,0,1,34.85,40.55Z"/><circle class="cls-20" cx="40.44" cy="41.64" r="0.46" transform="translate(-5.69 76.87) rotate(-83.2)"/><circle class="cls-20" cx="39.5" cy="43.81" r="0.46" transform="translate(-8.67 77.85) rotate(-83.2)"/><circle class="cls-20" cx="38.91" cy="39.73" r="0.46" transform="translate(-1.85 1.9) rotate(-2.73)"/><circle class="cls-20" cx="36.66" cy="39.84" r="0.46" transform="translate(-1.86 1.79) rotate(-2.73)"/><circle class="cls-20" cx="35.94" cy="42.01" r="0.46" transform="translate(-1.96 1.76) rotate(-2.73)"/><circle class="cls-20" cx="37.37" cy="43.95" r="0.46" transform="translate(-2.05 1.83) rotate(-2.73)"/><path class="cls-21" d="M20.79,33.55,32.45,32.4S31.22,37.46,27.54,38,20.79,33.55,20.79,33.55Z"/><path class="cls-22" d="M44.49,47.66s8.79,36-.42,51.08c-8.13,13.34-35.2,13.34-35.2,13.34"/><path class="cls-23" d="M26.92,32.94s4.32.3,3.27,3.65A4.46,4.46,0,0,1,27.61,38a4.38,4.38,0,0,1-3-.64,11.51,11.51,0,0,1-2.88-2.6l-.9-1.25Z"/></g></svg>