<svg id="Слой_1" data-name="Слой 1" xmlns="http://www.w3.org/2000/svg" xmlns:xlink="http://www.w3.org/1999/xlink" viewBox="0 0 60 160"><defs><style>.cls-1,.cls-26{fill:none;}.cls-2{clip-path:url(#clip-path);}.cls-3{fill:#ffc9a4;}.cls-4{fill:#f49d82;}.cls-5{fill:#ffab8a;}.cls-6{fill:#fff;}.cls-7{fill:#f4ad47;}.cls-11,.cls-8{fill:#f3ae7b;}.cls-9{fill:#ffe2d2;}.cls-10{fill:#383635;}.cls-11{opacity:0.38;}.cls-12{fill:#ffd561;}.cls-13{fill:#f8b73d;}.cls-14{fill:#f1aa2b;}.cls-15{fill:#ddd2ce;}.cls-16{fill:#e24e4e;}.cls-17{fill:#aa3737;}.cls-18{fill:#c94b4b;}.cls-19{fill:#a83636;}.cls-20{fill:#842121;}.cls-21{fill:#ffa16c;}.cls-22{fill:#513f3f;}.cls-23{fill:#f87956;}.cls-24{fill:#ff9d81;}.cls-25{fill:#ffdfc9;}.cls-26{stroke:#922;stroke-miterlimit:10;}</style><clipPath id="clip-path"><rect class="cls-1" width="60" height="160"/></clipPath></defs><title>для тестов</title><g class="cls-2"><polygon class="cls-3" points="44.73 34.15 45.91 34.35 54.2 44.32 49.9 47.65 44.73 34.15"/><path class="cls-4" d="M45.16,50.74s4.42,6.8,4.36,19.32S38.13,85.49,38.13,85.49l-.6,13.33s10.08-3.14,14-7.36c6.53-7.08,9.37-20.33,8-30.57A45.88,45.88,0,0,0,54.2,44.32Z"/><path class="cls-5" d="M21.5,51.29s-5.1,5.44-11.54,21S7.25,134,7.25,134s30.44.52,31.75.49c0,0-.24-40-.24-49.17,0-3.55,2.47-10.85,2.47-11.68S28.42,52.89,28.42,52.89Z"/><path class="cls-6" d="M17.36,57.23l17.1,20.88V62.37l-6-9.48-.62,3.74-6.3-5.35S17.89,56.33,17.36,57.23Z"/><path class="cls-7" d="M38.42,53.49a6.44,6.44,0,0,0-4.67-3.55c-3.46-.62-12.87-1.67-15.24-1.37a11.1,11.1,0,0,0-4,1.31L8.8,36.07l2.46-19.41L15.43,10l18.38,1.17,4.77,2.34,4.09,13.9S43.53,43,43.21,44,38.42,53.49,38.42,53.49Z"/><circle class="cls-8" cx="14.28" cy="32.56" r="3.57" transform="translate(-3.38 1.7) rotate(-6.1)"/><polygon class="cls-9" points="29.99 43.5 27.8 56.63 21.5 51.29 22.53 41.68 29.99 43.5"/><path class="cls-9" d="M37.3,13.81s.82,28,.83,29.56c0,.83-5.33,2.3-9.39,2.17s-12.34-3.73-12.34-3.73L13.79,14.53,25.91,9.43Z"/><ellipse class="cls-10" cx="21.18" cy="23.34" rx="2.77" ry="3.51" transform="translate(-0.16 0.14) rotate(-0.39)"/><circle class="cls-6" cx="23.25" cy="21.17" r="1.62" transform="translate(-0.14 0.16) rotate(-0.39)"/><path class="cls-11" d="M37.3,13.81s.82,28,.83,29.56c0,.75-4.33,2-8.16,2.17-.42,0-1.68-35.2-1.68-35.2Z"/><ellipse class="cls-10" cx="33.6" cy="23.02" rx="2.31" ry="3.21" transform="matrix(1, -0.01, 0.01, 1, -0.15, 0.23)"/><circle class="cls-6" cx="35.26" cy="20.97" r="1.5" transform="translate(-0.14 0.24) rotate(-0.39)"/><path class="cls-12" d="M36.46,60.24S42,44.16,40.81,31.69,37.3,13.81,37.3,13.81a26.81,26.81,0,0,0-8.77-.68c-5.35.36-14.7,1.79-14.66,2.24s.12,10.95.48,16.78,1.2,28.23,1.2,28.23S9,53.88,5.92,51.68A38.12,38.12,0,0,1,.46,46.87s.15-16.21,4-27.58S15.88,3.66,18.19,2.51s10.72-4.29,15.94.7,7.64,12.64,9,18.79,2.64,22.54,2.35,26.88S36.46,60.24,36.46,60.24Z"/><polygon class="cls-8" points="28.81 24.06 29.21 33.3 32.1 32.14 28.81 24.06"/><path class="cls-13" d="M36.57,16.41l-5.73-3s2-1.76,4.1-.81S36.71,15.68,36.57,16.41Z"/><path class="cls-14" d="M22.59,14.9l-6.54,2.93s.08-3.25,2.19-4.38S22,14.23,22.59,14.9Z"/><path class="cls-15" d="M27.8,56.63l-5.27,6.9-5.17-6.31s1.27-2.11,2.06-3.22,2.07-2.72,2.07-2.72Z"/><path class="cls-15" d="M28.42,52.89s2.25,2.89,2.9,3.95,3.14,5.54,3.14,5.54L27.8,56.63Z"/><polygon class="cls-16" points="24.93 60.38 28.36 63.54 31.21 63.06 31.78 59.91 27.8 56.63 24.93 60.38"/><polygon class="cls-16" points="28.36 63.54 26.84 68.91 34.46 78.11 34.46 67.33 31.21 63.06 28.36 63.54"/><polygon class="cls-17" points="48.76 48.31 47.09 48.72 47.18 50.05 47.66 52.07 48.64 51.74 48.76 48.31"/><path class="cls-18" d="M37.67,26.62s4.4,4.56,6.6,7a52.63,52.63,0,0,1,3.44,4.27L45,43.81l-7.06-8.69Z"/><path class="cls-18" d="M47.71,37.91c.81,1.06,2.56,4.19,2.76,5.75.23,1.75.68,5.7-5.32,7.08-3.34.77-5.93-.21-7.32-2.48-1.64-2.69-1.44-4.55.17-6.79s6.41-1.31,6.41-1.31S46.91,36.85,47.71,37.91Z"/><path class="cls-19" d="M37.82,43.95c.31-2.06,1.3-3.2,3.3-3,2.65.32,5,3.72,4.42,6.15a3.09,3.09,0,0,1-3.89,2.46A5.06,5.06,0,0,1,37.82,43.95Z"/><circle class="cls-20" cx="43.82" cy="45.11" r="0.49" transform="translate(-6.16 83.29) rotate(-83.2)"/><circle class="cls-20" cx="42.81" cy="47.44" r="0.49" transform="translate(-9.36 84.33) rotate(-83.2)"/><circle class="cls-20" cx="42.18" cy="43.07" r="0.49" transform="translate(-2 2.06) rotate(-2.73)"/><circle class="cls-20" cx="39.77" cy="43.18" r="0.49" transform="translate(-2.01 1.94) rotate(-2.73)"/><circle class="cls-20" cx="39" cy="45.52" r="0.49" transform="translate(-2.12 1.91) rotate(-2.73)"/><circle class="cls-20" cx="40.53" cy="47.59" r="0.49" transform="translate(-2.22 1.98) rotate(-2.73)"/><path class="cls-21" d="M22.75,36.44l12.5-1.23S33.93,40.64,30,41.26,22.75,36.44,22.75,36.44Z"/><path class="cls-22" d="M6.7,127.58s17,10.75,32.3-.58v33H7.25Z"/><path class="cls-23" d="M29.32,35.79s4.63.32,3.51,3.92a4.78,4.78,0,0,1-2.77,1.54,4.69,4.69,0,0,1-3.25-.69,12.33,12.33,0,0,1-3.09-2.79l-1-1.34Z"/><path class="cls-24" d="M32.8,106.85s2.52.41,3.28,6A9.56,9.56,0,0,1,34.95,119s-16.58,4.16-24.81-2.9c-8.79-7.54-9-26.65-5.33-38.82,4-13.26,12.55-20,12.55-20s-4.65,17.12-5.44,25.87c-.4,4.49.61,17.3,5.41,21.63C22.89,109.73,26.75,107.19,32.8,106.85Z"/><path class="cls-25" d="M32.11,106.77s2-4.56,2-5.33,1.6-.57,1.6-.57v3.72l10.89-1.49,1.17,2.68-4.23,1.75.59,0,4.86-1.11.61,2L44.59,110l3.43-.7L48.7,112l-2.89.58,2,.18-.09,1.81L34.95,119Z"/><path class="cls-26" d="M48.16,51.57s11.66,36.05,3.09,63.68c-10,32.19-44,44.75-44,44.75"/></g></svg>