<svg id="Слой_1" data-name="Слой 1" xmlns="http://www.w3.org/2000/svg" xmlns:xlink="http://www.w3.org/1999/xlink" viewBox="0 0 60 160"><defs><style>.cls-1{fill:none;}.cls-2{clip-path:url(#clip-path);}.cls-3{fill:#706764;}.cls-4{fill:#fcdcc7;}.cls-5{fill:#786e6a;}.cls-6{fill:#ffe2d1;}.cls-7{fill:#ffa16c;}.cls-8{fill:#383635;}.cls-9{fill:#fff;}.cls-10,.cls-11{fill:#ffae79;}.cls-10{opacity:0.25;}.cls-12{fill:#f87956;}.cls-13{fill:#998e89;}.cls-14{fill:#e4dcd9;}.cls-15{fill:#ff4d4d;}</style><clipPath id="clip-path"><rect class="cls-1" y="0.37" width="60" height="159.63"/></clipPath></defs><title>для тестов</title><g class="cls-2"><path class="cls-3" d="M57.66,104.44l-12.49-3.69s-1.34,16.5-6.35,23.59c-3.09,4.37-4.46,23.86,1,18.92C59.42,125.42,57.66,104.44,57.66,104.44Z"/><path class="cls-4" d="M44.06,98.22l-1.62-3.6a1.22,1.22,0,0,1,.2-1.32l1-1.17a1.22,1.22,0,0,1,1.91.12L47.47,95,49.32,83.9a1.45,1.45,0,0,1,2-1.1l.73.3a1.45,1.45,0,0,1,.9,1.31L53.08,92l.85-1.49,2.28,1.66,3.64,2.88s.61,4.72-.58,8.16c-1,2.9-11.37,1.15-13.23-1.17A11.12,11.12,0,0,1,44.06,98.22Z"/><path class="cls-5" d="M22,64.24A60.82,60.82,0,0,0,11.76,81.31c-3.86,10-8.26,42.94-8.26,42.94L-.28,160H40.48s-1.9-55.19-4.88-70.87-7.52-24.5-7.52-24.5Z"/><path class="cls-6" d="M21.51,51.53,22,64.24s3.6,3.6,3.84,3.68,2.27-3.29,2.27-3.29l2.19-8.06Z"/><path class="cls-3" d="M22,64.24S8.33,82.71,3.47,99.17C2.12,103.75,0,108.86,0,124.25V160H9.7c.54-10.86,1.35-40.36,1.72-47.88C12.66,87,22,64.24,22,64.24Z"/><ellipse class="cls-7" cx="14.33" cy="40.27" rx="5.7" ry="4.7" transform="translate(-5.81 2.57) rotate(-8.52)"/><path class="cls-6" d="M40.36,10.25s.29,40.12,0,41.25-7.51,9-8.7,9.15-12.82-4-13.92-5.24-6.31-40.61-6.31-40.61l3.34-7.08s17.22,5.52,17.76,6S40.36,10.25,40.36,10.25Z"/><polygon class="cls-7" points="30.13 33.5 30.96 45.71 33.4 43.49 30.13 33.5"/><path class="cls-8" d="M39.31,29.31l-7.09.45s.55,4.16,3.8,3.86S39.31,29.31,39.31,29.31Z"/><circle class="cls-9" cx="38.63" cy="28.82" r="1.52" transform="translate(9.51 67.22) rotate(-89.55)"/><path class="cls-8" d="M33.43,20.85,39.14,22s-.69-2.34-2.57-2.84A2.76,2.76,0,0,0,33.43,20.85Z"/><path class="cls-10" d="M31.65,60.64c.57-.29-2.91-44.2-2.91-44.2L13.91,9.11s-4.3,4.74-4.21,5.34S12.9,25.2,12.9,25.2s3.92,29.17,4.83,30.21S30.49,61,31.65,60.64Z"/><path class="cls-8" d="M31.47,16.37c9.39-.81,12-5.62,6.85-10.92S24.35.1,21.48.53s-8,2.81-10.28,7S7,16,7.14,17c.09.61,3.75,13.59,5.75,18.86l1.4-.3L11.42,14.79S24.73,16.95,31.47,16.37Z"/><path class="cls-8" d="M24.87,30.29l-7.92.5s.58,4.4,4,4.08S24.87,30.29,24.87,30.29Z"/><circle class="cls-9" cx="23.44" cy="29.81" r="1.69" transform="translate(-6.55 53.02) rotate(-89.55)"/><path class="cls-8" d="M22.09,20.77l-6.24,3.36s0-3,2-4.22S21.53,20.22,22.09,20.77Z"/><path class="cls-11" d="M35.52,49.44a4,4,0,0,1-1.73,2c-1.36.82-9.22-.67-9.22-.67Z"/><polygon class="cls-12" points="32.9 49.77 31.26 51.68 24.56 50.8 32.9 49.77"/><path class="cls-8" d="M58.89,62.47,57.35,60.7,55.82,62a11,11,0,0,0-7-3.55V57h.95a1.38,1.38,0,0,0,1.38-1.38v-.52a1.38,1.38,0,0,0-1.38-1.38H45.57a1.38,1.38,0,0,0-1.38,1.38v.52A1.38,1.38,0,0,0,45.57,57h.95v1.48a11,11,0,0,0-6.87,3.45L38.23,60.7l-1.55,1.77,1.55,1.36a11,11,0,1,0,19,.11ZM54.31,75.1l-1-1-.72.72,1,1a8.68,8.68,0,0,1-5.41,2.31V76.61h-1v1.53a8.68,8.68,0,0,1-5.34-2.24l1.06-1.06-.72-.72-1.06,1.06A8.68,8.68,0,0,1,39,69.84h1.43v-1H39a8.68,8.68,0,0,1,2.3-5.31l1,1,.72-.72-1-1a8.68,8.68,0,0,1,5.16-2.08v1.33h1V60.73a8.68,8.68,0,0,1,5.23,2.14l-1,1,.72.72,1-1a8.68,8.68,0,0,1,2.24,5.24H55v1H56.4A8.68,8.68,0,0,1,54.31,75.1Z"/><path class="cls-8" d="M49.84,66.63,48,68.47a.92.92,0,0,0-.57,0l-3.36-3.84-.7.61,3.38,3.86a1,1,0,1,0,1.91,0l1.85-1.85Z"/><polygon class="cls-13" points="21.99 64.24 16.86 71.24 12.66 79.12 17.32 85.56 14.79 101.35 26.76 130.5 35.92 100.17 30.96 85.56 34.36 78.49 28.09 64.63 25.82 67.92 21.99 64.24"/><path class="cls-9" d="M19.25,71.81l6.65,35.07,4.39-35.39-2.19-6.86-2.27,3.29L22,64.24S20.44,69.95,19.25,71.81Z"/><polygon class="cls-14" points="25.82 67.92 19.25 71.81 21.99 64.24 25.82 67.92"/><polygon class="cls-14" points="30.29 71.49 25.82 67.92 28.09 64.63 30.29 71.49"/><polygon class="cls-15" points="21.82 70.28 24.29 73.89 27.41 73.89 28.44 70.02 25.82 67.92 21.82 70.28"/><polygon class="cls-15" points="24.29 73.89 21.51 83.75 26.63 112.81 28.79 83.58 27.41 73.89 24.29 73.89"/></g></svg>