<svg id="Слой_1" data-name="Слой 1" xmlns="http://www.w3.org/2000/svg" xmlns:xlink="http://www.w3.org/1999/xlink" viewBox="0 0 60 160"><defs><style>.cls-1{fill:none;}.cls-2{clip-path:url(#clip-path);}.cls-3{fill:#513f3f;}.cls-4{fill:#0079a5;}.cls-5{fill:#fcdcc7;}.cls-6{fill:#3982b3;}.cls-7{fill:#4492c3;}.cls-8{fill:#fff;}.cls-9{fill:#dbd0cc;}.cls-10{fill:#ff4d4d;}.cls-11{fill:#ffa16c;}.cls-12{fill:#ffe2d1;}.cls-13{fill:#383635;}.cls-14{fill:#a9b8b7;}.cls-15{fill:#ffae79;opacity:0.38;}.cls-16{fill:#f87956;}.cls-17{fill:#01657f;}</style><clipPath id="clip-path"><rect class="cls-1" y="0.37" width="60" height="159.63"/></clipPath></defs><title>для тестов</title><g class="cls-2"><polygon class="cls-3" points="40.28 118.62 33.33 160 0 160 0 117.13 25.64 99.25 40.28 118.62"/><path class="cls-4" d="M17.23,52.36S22,74.35,34,78.65C48,83.63,54.65,76,57.14,67.76c3.71-12.28.74-26.39.74-26.39l-11.17,0S53.36,65.4,41.47,66.9C36.47,67.53,17.23,52.36,17.23,52.36Z"/><path class="cls-5" d="M44.42,38.17,43.2,35a1,1,0,0,1,.24-1.11l1-.95a1,1,0,0,1,1.62.19l1.47,2.39,2.1-9.36a1.24,1.24,0,0,1,1.73-.85l.61.29a1.24,1.24,0,0,1,.71,1.16l-.23,6.53.8-1.24,1.87,1.52,3.21,2.85a15.24,15.24,0,0,1-.93,6.42c-1.1,2.39-9.38.5-10.86-1.56C45.32,39.68,44.42,38.17,44.42,38.17Z"/><path class="cls-6" d="M7.52,37.74S-.65,47.84-3.34,57.15s3.63,70,3.63,70L13.87,139l15.67-13.14L41.5,137s7.44-21.63,8.63-30.82c1.75-13.5,1.22-25.52-.25-32-3.27-14.3-6-19-7.93-23.49a98,98,0,0,0-5.44-10.93Z"/><polygon class="cls-7" points="7.52 37.73 4.74 47.46 11.04 55.51 11.55 65.07 29.57 74.03 40.28 60.46 36.81 51.31 39.68 45.74 36.51 39.77 7.52 37.73"/><path class="cls-8" d="M7.52,37.74A103.87,103.87,0,0,0,17,52.62a32.31,32.31,0,0,0,3.31,3.77l7.47,6.73s4.24-10.33,6.05-15.27a55.42,55.42,0,0,0,2.32-7.61Z"/><path class="cls-9" d="M22.82,42.88,15.76,51s-2-2.81-4-5.84c-1.61-2.47-3.44-5.84-3.44-5.84Z"/><path class="cls-9" d="M32.57,51.31,25.1,42.88l11.41-3.11s-.92,2.79-1.59,5.11S32.57,51.31,32.57,51.31Z"/><polygon class="cls-10" points="19.65 46.52 22.82 49.75 26.49 49.75 28.83 47.09 25.1 42.88 22.82 42.88 19.65 46.52"/><polygon class="cls-10" points="22.82 49.75 20.36 56.39 27.83 63.12 30.93 55.47 26.49 49.75 22.82 49.75"/><ellipse class="cls-11" cx="6.5" cy="26.87" rx="4.22" ry="3.7"/><ellipse class="cls-11" cx="36.22" cy="26.23" rx="3.27" ry="2.87"/><path class="cls-12" d="M34.16,8.31c1.15,2.76,3.88,21.35,4.14,25.8s.24,5.69-1.06,6.64c-.89.65-8.62,3.45-18.24,2.2S5.95,39.86,5.47,37.78s.47-10.64,3-18c1.36-4,1.42-7.28,2.27-10a12.82,12.82,0,0,1,2.74-4.6c.94-.84,2.51-4.08,9.72-3.55S33,5.55,34.16,8.31Z"/><ellipse class="cls-13" cx="17.59" cy="17.77" rx="2.36" ry="3.2"/><circle class="cls-8" cx="19.44" cy="15.72" r="1.49"/><path class="cls-14" d="M13.46,5.22l-2.33,5,.63,5.23L7.29,24s-4.54-3.42-4.54-4.53S10.54,7.13,13.46,5.22Z"/><path class="cls-14" d="M34.79,10.6s2.41,4.55,3,5.54-.94,6-.94,6Z"/><path class="cls-14" d="M14,11.75l6.1-.67A3.77,3.77,0,0,0,16.8,9.34,2.93,2.93,0,0,0,14,11.75Z"/><path class="cls-15" d="M34.16,8.31c1.15,2.76,3.88,21.35,4.14,25.8s.24,5.69-1.06,6.64c-.69.5-5.45,2.29-12,2.5l-1-41.49C31,2.76,33,5.55,34.16,8.31Z"/><ellipse class="cls-13" cx="31.23" cy="18.02" rx="2" ry="2.95"/><circle class="cls-8" cx="32.95" cy="16.35" r="1.41"/><path class="cls-14" d="M10,34.55l7.63-6.77a17.46,17.46,0,0,0,5.81,1.38,37.45,37.45,0,0,0,7.6-.81l1.41-.57,5.68,6.79Z"/><path class="cls-11" d="M24.65,18.94c-1.09,0-2.33,1.65-3.47,4.88-1,2.9-1.21,4.3-.91,5.28.49,1.65,4.23,2.41,6.74,1.63s2.93-1.62,3.19-2.3S29.09,24,28,21.75,25.74,19,24.65,18.94Z"/><path class="cls-14" d="M34.18,11.62l-5.27-.73a3.27,3.27,0,0,1,2.88-1.43A2.54,2.54,0,0,1,34.18,11.62Z"/><path class="cls-11" d="M16.36,34.58S18.61,38,24.26,38c6,0,7.56-3.63,7.56-3.63Z"/><path class="cls-16" d="M26.63,34.41a3.69,3.69,0,0,1,1.94,2.83A10,10,0,0,1,24,38a10.1,10.1,0,0,1-5.16-1.32,8.7,8.7,0,0,1-2.5-2.15Z"/><polygon class="cls-8" points="22.82 131.44 35.58 131.44 29.53 125.81 22.82 131.44"/><circle class="cls-17" cx="29.98" cy="81.19" r="1.14"/><circle class="cls-17" cx="29.98" cy="94.43" r="1.14"/><circle class="cls-17" cx="29.98" cy="107.81" r="1.14"/><rect class="cls-10" x="43.13" y="3.46" width="3.47" height="11.81"/><rect class="cls-10" x="43.13" y="17.1" width="3.47" height="3.26"/></g></svg>