<svg id="Слой_1" data-name="Слой 1" xmlns="http://www.w3.org/2000/svg" xmlns:xlink="http://www.w3.org/1999/xlink" viewBox="0 0 60 60"><defs><style>.cls-1{fill:none;}.cls-2{clip-path:url(#clip-path);}.cls-3{fill:#0079a5;}.cls-4{fill:#fcdcc7;}.cls-5{fill:#3982b3;}.cls-6{fill:#4492c3;}.cls-7{fill:#fff;}.cls-8{fill:#dbd0cc;}.cls-9{fill:#ff4d4d;}.cls-10{fill:#ffa16c;}.cls-11{fill:#ffe2d1;}.cls-12{fill:#383635;}.cls-13{fill:#a9b8b7;}.cls-14{fill:#ffae79;opacity:0.38;}.cls-15{fill:#f87956;}</style><clipPath id="clip-path"><rect class="cls-1" width="60" height="60"/></clipPath></defs><title>для тестов</title><g class="cls-2"><path class="cls-3" d="M14.24,51s5.23,24.15,18.47,28.87C48,85.34,55.33,77,58.08,67.91c4.08-13.49.81-29,.81-29l-12.26,0S53.92,65.32,40.86,67C35.38,67.66,14.24,51,14.24,51Z"/><path class="cls-4" d="M44.1,35.42,42.77,32A1.14,1.14,0,0,1,43,30.74l1-1a1.14,1.14,0,0,1,1.78.21l1.61,2.63,2.31-10.27a1.36,1.36,0,0,1,1.9-.93l.67.32a1.36,1.36,0,0,1,.78,1.28l-.25,7.17.88-1.36,2.05,1.67,3.53,3.13a16.73,16.73,0,0,1-1,7.05c-1.21,2.62-10.3.55-11.92-1.71C45.09,37.07,44.1,35.42,44.1,35.42Z"/><path class="cls-5" d="M3.58,34.94S-5.39,46-8.34,56.26s4,57.92,4,57.92l14.9,13,17.2-14.43L40.89,125a72.61,72.61,0,0,0,7-18.35C50,97,49.19,81.58,48.28,74.4c-1.94-15.34-4.79-20.32-6.9-25.23a107.67,107.67,0,0,0-6-12Z"/><polygon class="cls-6" points="3.58 34.94 0.52 45.62 7.45 54.45 8 64.96 27.8 74.8 39.56 59.89 35.75 49.84 38.9 43.73 35.42 37.17 3.58 34.94"/><path class="cls-7" d="M3.58,34.94A114.07,114.07,0,0,0,14,51.29a35.48,35.48,0,0,0,3.64,4.14l8.21,7.39s4.66-11.34,6.65-16.77a60.87,60.87,0,0,0,2.55-8.35Z"/><path class="cls-8" d="M20.38,40.58l-7.75,8.9s-2.19-3.08-4.35-6.41C6.51,40.36,4.5,36.66,4.5,36.66Z"/><path class="cls-8" d="M31.09,49.85l-8.2-9.26,12.53-3.42s-1,3.07-1.75,5.61S31.09,49.85,31.09,49.85Z"/><polygon class="cls-9" points="16.9 44.59 20.38 48.14 24.41 48.14 26.99 45.21 22.89 40.59 20.38 40.58 16.9 44.59"/><polygon class="cls-9" points="20.38 48.14 17.68 55.43 25.89 62.82 29.29 54.42 24.41 48.14 20.38 48.14"/><ellipse class="cls-10" cx="4.63" cy="24.62" rx="4.11" ry="3.61"/><ellipse class="cls-10" cx="33.6" cy="24" rx="3.19" ry="2.79"/><path class="cls-11" d="M31.59,6.53c1.12,2.69,3.79,20.81,4,25.15s.23,5.55-1,6.47c-.87.64-8.4,3.37-17.78,2.14s-12.73-3-13.19-5,.46-10.37,2.9-17.53C7.86,13.82,7.91,10.62,8.75,8a12.49,12.49,0,0,1,2.67-4.48c.92-.81,2.44-4,9.47-3.46S30.47,3.84,31.59,6.53Z"/><ellipse class="cls-12" cx="15.44" cy="15.75" rx="2.3" ry="3.12"/><circle class="cls-7" cx="17.25" cy="13.75" r="1.45"/><path class="cls-13" d="M11.42,3.52,9.15,8.42l.61,5.1-4.36,8.3S1,18.49,1,17.41,8.57,5.38,11.42,3.52Z"/><path class="cls-13" d="M32.2,8.76s2.35,4.43,2.88,5.4S34.17,20,34.17,20Z"/><path class="cls-13" d="M11.92,9.88l5.95-.66a3.67,3.67,0,0,0-3.2-1.69A2.86,2.86,0,0,0,11.92,9.88Z"/><path class="cls-14" d="M31.59,6.53c1.12,2.69,3.79,20.81,4,25.15s.23,5.55-1,6.47c-.67.49-5.31,2.23-11.71,2.44L21.92.15C28.51,1.12,30.47,3.84,31.59,6.53Z"/><ellipse class="cls-12" cx="28.73" cy="15.99" rx="1.95" ry="2.87"/><circle class="cls-7" cx="30.41" cy="14.37" r="1.37"/><path class="cls-13" d="M8,32.11l7.44-6.59a17,17,0,0,0,5.66,1.35,36.5,36.5,0,0,0,7.41-.79l1.37-.56,5.53,6.62Z"/><path class="cls-10" d="M22.32,16.89c-1.06,0-2.27,1.61-3.39,4.75-1,2.83-1.18,4.19-.89,5.15.48,1.61,4.12,2.35,6.57,1.59s2.85-1.58,3.11-2.24-1.07-4.32-2.11-6.51S23.39,16.91,22.32,16.89Z"/><path class="cls-13" d="M31.61,9.76l-5.14-.71a3.18,3.18,0,0,1,2.81-1.39A2.48,2.48,0,0,1,31.61,9.76Z"/><path class="cls-10" d="M14.24,32.13s2.19,3.37,7.7,3.38c5.81,0,7.37-3.54,7.37-3.54Z"/><path class="cls-15" d="M24.26,32a3.59,3.59,0,0,1,1.89,2.75,9.78,9.78,0,0,1-4.43.78,9.84,9.84,0,0,1-5-1.28,8.48,8.48,0,0,1-2.44-2.09Z"/><rect class="cls-9" x="42.69" y="3.35" width="3.82" height="12.97"/><rect class="cls-9" x="42.69" y="18.33" width="3.82" height="3.58"/></g></svg>