<svg id="Слой_1" data-name="Слой 1" xmlns="http://www.w3.org/2000/svg" xmlns:xlink="http://www.w3.org/1999/xlink" viewBox="0 0 60 60"><defs><style>.cls-1{fill:none;}.cls-2{clip-path:url(#clip-path);}.cls-3{fill:#ff8e72;}.cls-4{fill:#ffae3b;}.cls-12,.cls-5{fill:#ffae79;}.cls-6{fill:#ffac89;}.cls-7{fill:#fff;}.cls-8{fill:#eee;}.cls-9{fill:#ff4d4d;}.cls-10{fill:#ffe2d1;}.cls-11{fill:#363332;}.cls-12{opacity:0.38;}.cls-13{fill:#ffd557;}.cls-14{fill:#ffb72b;}.cls-15{fill:#ffab0b;}.cls-16{fill:#ffa16c;}.cls-17{fill:#ff9d81;}.cls-18{fill:#f87956;}.cls-19{fill:#ffcfbc;}.cls-20{fill:#52433b;}</style><clipPath id="clip-path"><rect class="cls-1" width="60" height="60"/></clipPath></defs><title>для тестов</title><g class="cls-2"><path class="cls-3" d="M26.4,66.9s7.71,4.74,11.54-6.82c1.74-5.25,2.52-8.18,2.52-8.18s5.83-.22,8.41,4.71A40.32,40.32,0,0,1,38.41,73c-7.73,7.1-15.07-1.48-15.07-1.48Z"/><path class="cls-4" d="M33.75,40.81a4.77,4.77,0,0,0-3.45-2.6c-2.62-.53-9.75-1.49-11.56-1.3a8.44,8.44,0,0,0-3.08.92l-4.08-10.6,2.2-14.71,3.28-5L31,8.73l3.58,1.86,2.87,10.63s.39,11.84.13,12.66S33.75,40.81,33.75,40.81Z"/><circle class="cls-5" cx="15.8" cy="24.67" r="2.72" transform="translate(-2.01 1.41) rotate(-4.81)"/><path class="cls-6" d="M26.64,37.94l8.8,22a4.58,4.58,0,0,1-.8,4.72c-2.22,2.54-4.72,8.3-5.36,12C28.5,81.15,28.6,94,28.6,94L3.19,95.19S5.86,73.7,10.51,60C16.4,42.63,22.15,36.22,22.15,36.22Z"/><polygon class="cls-7" points="18.46 41.76 30.48 53.54 30.1 45.5 27.59 38.5 26.4 41.32 21.72 36.4 18.46 41.76"/><polygon class="cls-8" points="26.4 41.32 24.23 47.55 18.46 41.76 21.72 36.4 26.4 41.32"/><polygon class="cls-8" points="29.91 45.02 26.4 41.32 27.05 38.99 29.91 45.02"/><polygon class="cls-9" points="24.97 44.78 27.12 46.86 28.72 46.55 29.27 44.35 26.4 41.32 24.97 44.78"/><polygon class="cls-9" points="27.12 46.86 26.81 49.94 30.48 53.54 30.22 48.9 28.72 46.55 27.12 46.86"/><polygon class="cls-10" points="29.34 30.78 26.4 41.32 21.72 36.4 23.4 28.64 29.34 30.78"/><path class="cls-10" d="M33.61,10.82s.15,21.3.13,22.48c0,.63-4.09,1.66-7.17,1.49s-9.31-3-9.31-3L15.74,11,25,7.28Z"/><ellipse class="cls-11" cx="21.27" cy="17.8" rx="2.66" ry="2.02" transform="translate(-1.13 34.15) rotate(-76.04)"/><circle class="cls-7" cx="19.99" cy="16.08" r="1.23" transform="translate(3.6 35.81) rotate(-89.1)"/><path class="cls-12" d="M33.61,10.82s.15,21.3.13,22.48c0,.57-3.53,1.53-6.55,1.51C26.87,34.8,26.83,8,26.83,8Z"/><ellipse class="cls-11" cx="30.65" cy="17.75" rx="2.44" ry="1.76" transform="translate(6.03 43.21) rotate(-76.04)"/><circle class="cls-7" cx="29.96" cy="15.9" r="1.14" transform="translate(13.59 45.6) rotate(-89.1)"/><path class="cls-13" d="M32.83,45.2S36.69,34,36,24.46s-2.36-13.64-2.36-13.64A20.38,20.38,0,0,0,27,10.15c-4.07.18-11.2,1.11-11.18,1.45s-.1,8.32.08,12.76-.13,19.23-.13,19.23-4.3-2.8-6.62-4.53A29,29,0,0,1,5.06,35.3S5.44,23,8.54,14.42s9-11.69,10.75-12.52,8.22-3.07,12.1.81,5.59,9.74,6.5,14.44A125.39,125.39,0,0,1,39.22,37.6C38.92,40.89,32.83,45.2,32.83,45.2Z"/><polygon class="cls-5" points="27 19.26 26.89 26.29 29.37 25.46 27 19.26"/><path class="cls-14" d="M33.45,12.44l-4.86-.85A3.17,3.17,0,0,1,31.37,10,2.46,2.46,0,0,1,33.45,12.44Z"/><path class="cls-15" d="M23.13,12.08l-5.35,1s.64-2.39,2.4-2.85S22.84,11.49,23.13,12.08Z"/><path class="cls-16" d="M22.59,28.65l8.4-.44a4.52,4.52,0,0,1-4,3A4.47,4.47,0,0,1,22.59,28.65Z"/><path class="cls-17" d="M30.54,81.33s2,.33,2.64,4.86a7.68,7.68,0,0,1-.91,4.87s-13.33,3.34-19.95-2.33C5.25,82.67,5,67.31,8,57.53A31.68,31.68,0,0,1,18.46,41.76s-4.07,13.44-4.7,20.47c-.32,3.61.49,13.91,4.35,17.39C22.57,83.64,25.68,81.61,30.54,81.33Z"/><path class="cls-18" d="M29,30.67A2.8,2.8,0,0,0,27,28.43l-4.37.23a4.56,4.56,0,0,0,2.32,2.24A4.7,4.7,0,0,0,29,30.67Z"/><path class="cls-19" d="M41.57,52.05l1.59-6.58a.38.38,0,0,1,.5-.26l1.91.72-.17,1.19.27.1.61-1,1.85.69a.38.38,0,0,1,.22.5s-.77,2.09-.45,2.13l.77.11A.38.38,0,0,1,49,50l0,1.71a.38.38,0,0,1-.26.35l-.12,0c-.27.08-.31.26-.12.46l2.06,1a.38.38,0,0,1,0,.56l-3,2.74a.93.93,0,0,1-1-.15l-4.75-4.26A.38.38,0,0,1,41.57,52.05Z"/><polygon class="cls-20" points="50.97 54.22 34.44 43.51 33.39 39.84 51.53 53.33 52.66 54.81 50.97 54.22"/><path class="cls-20" d="M34.29,43S29.08,39.48,30,39s3.68,1.9,3.68,1.9Z"/><path class="cls-10" d="M41.57,52.24s3.15-4.81,4.29-4.59,1.07,2.23.62,3.23S44.54,55,44.54,55Z"/></g></svg>