<svg id="Слой_1" data-name="Слой 1" xmlns="http://www.w3.org/2000/svg" xmlns:xlink="http://www.w3.org/1999/xlink" viewBox="0 0 60 60"><defs><style>.cls-1{fill:none;}.cls-2{clip-path:url(#clip-path);}.cls-3{fill:#786e6a;}.cls-4{fill:#998e89;}.cls-5{fill:#ffe2d1;}.cls-6{fill:#fff;}.cls-7{fill:#e4dcd9;}.cls-8{fill:#ff4d4d;}.cls-9{fill:#706764;}.cls-10{fill:#ffa16c;}.cls-11{fill:#383635;}.cls-12,.cls-13{fill:#ffae79;}.cls-12{opacity:0.25;}.cls-14{fill:#f87956;}.cls-15{fill:#fcdcc7;}</style><clipPath id="clip-path"><rect class="cls-1" width="60" height="60"/></clipPath></defs><title>для тестов</title><g class="cls-2"><path class="cls-3" d="M11.35,46.72A44.23,44.23,0,0,0,3.92,59.13C1.11,66.42-3.22,88.39-3.22,88.39l-1.62,28H24.8s-1.38-40.14-3.55-51.53S15.79,47,15.79,47Z"/><polygon class="cls-4" points="11.35 46.72 7.62 51.81 4.57 57.55 7.96 62.23 6.12 73.71 14.82 94.9 21.49 72.85 17.88 62.23 20.35 57.08 15.79 47.01 14.14 49.4 11.35 46.72"/><path class="cls-5" d="M11,37.48l.35,9.24S14,49.34,14.14,49.4A16.31,16.31,0,0,0,15.79,47l1.59-5.86Z"/><path class="cls-6" d="M9.36,52.23l4.84,25.5L17.39,52l-1.59-5L14.14,49.4l-2.79-2.68A31.06,31.06,0,0,1,9.36,52.23Z"/><polygon class="cls-7" points="14.14 49.4 9.36 52.23 11.35 46.72 14.14 49.4"/><polygon class="cls-7" points="17.39 52 14.14 49.4 15.79 47.01 17.39 52"/><polygon class="cls-8" points="11.23 51.12 13.03 53.74 15.3 53.74 16.05 50.92 14.14 49.4 11.23 51.12"/><polygon class="cls-8" points="13.03 53.74 11.01 60.91 14.73 82.04 16.3 60.78 15.3 53.74 13.03 53.74"/><path class="cls-9" d="M11.35,46.72S1.23,56.34-2.54,64.49C-6.4,72.84-6.83,77.73-9.23,89.24c-.53,2.56-1.5,8.81-1.5,8.81l7.18-.71A124.54,124.54,0,0,1-.29,74.65,123.7,123.7,0,0,1,11.35,46.72Z"/><ellipse class="cls-10" cx="5.78" cy="29.29" rx="4.14" ry="3.42" transform="translate(-4.28 1.18) rotate(-8.52)"/><path class="cls-5" d="M24.71,7.46s.21,29.17,0,30S19.24,44,18.38,44.11,9.06,41.2,8.26,40.3,3.67,10.77,3.67,10.77L6.1,5.62S18.62,9.63,19,10,24.71,7.46,24.71,7.46Z"/><polygon class="cls-10" points="17.27 24.37 17.88 33.25 19.65 31.63 17.27 24.37"/><path class="cls-11" d="M23.95,21.32l-5.15.33s.4,3,2.76,2.81S23.95,21.32,23.95,21.32Z"/><circle class="cls-6" cx="23.45" cy="20.97" r="1.1" transform="translate(2.3 44.26) rotate(-89.55)"/><path class="cls-11" d="M19.68,15.17l4.15.83A3.2,3.2,0,0,0,22,13.94,2,2,0,0,0,19.68,15.17Z"/><path class="cls-12" d="M18.38,44.11C18.8,43.9,16.27,12,16.27,12L5.48,6.63s-3.13,3.45-3.06,3.88,2.33,7.82,2.33,7.82,2.85,21.21,3.51,22S17.53,44.35,18.38,44.11Z"/><path class="cls-11" d="M18.25,11.91c6.83-.59,8.73-4.08,5-7.94S13.07.09,11,.4A11.32,11.32,0,0,0,3.51,5.49C1.83,8.54.45,11.62.56,12.34c.07.45,2.73,9.88,4.18,13.71l1-.22L3.67,10.77S13.34,12.34,18.25,11.91Z"/><path class="cls-11" d="M13.45,22l-5.76.37s.42,3.2,2.92,3S13.45,22,13.45,22Z"/><circle class="cls-6" cx="12.41" cy="21.69" r="1.23" transform="translate(-9.38 33.93) rotate(-89.55)"/><path class="cls-11" d="M11.43,15.12,6.89,17.56a3.89,3.89,0,0,1,1.44-3.07A2.44,2.44,0,0,1,11.43,15.12Z"/><path class="cls-13" d="M21.19,36a2.93,2.93,0,0,1-1.26,1.47c-1,.6-6.71-.48-6.71-.48Z"/><polygon class="cls-14" points="19.29 36.2 18.09 37.59 13.23 36.95 19.29 36.2"/><path class="cls-9" d="M44.11,54.41l-7.37-2.63s-1.08,10.63-4.53,10.57c-3.22-.06-13,5.72-13,5.72s3.57,10.28,4.1,14.81C27,86,33.68,72.71,37.15,70,41.42,66.62,44.11,54.41,44.11,54.41Z"/><path class="cls-15" d="M35.17,50.07l-1-2.53a.84.84,0,0,1,.19-.89l.76-.76a.84.84,0,0,1,1.3.15L37.63,48l1.69-7.52a1,1,0,0,1,1.39-.68l.49.23a1,1,0,0,1,.57.93l-.19,5.25.64-1,1.5,1.22,2.58,2.29a12.24,12.24,0,0,1-.75,5.16c-.88,1.92-7.54.41-8.72-1.25C35.9,51.29,35.17,50.07,35.17,50.07Z"/><path class="cls-11" d="M52.46,14.76,50.9,13l-1.54,1.35a11.1,11.1,0,0,0-7-3.59V9.25h1a1.39,1.39,0,0,0,1.39-1.39V7.33a1.39,1.39,0,0,0-1.39-1.39H39A1.39,1.39,0,0,0,37.6,7.33v.53A1.39,1.39,0,0,0,39,9.25h1v1.49A11.1,11.1,0,0,0,33,14.23L31.56,13,30,14.76l1.57,1.37a11.13,11.13,0,1,0,19.2.11ZM47.83,27.54l-1-1-.73.73,1,1a8.78,8.78,0,0,1-5.47,2.33V29.06h-1v1.55a8.78,8.78,0,0,1-5.4-2.27l1.07-1.07-.73-.73L34.5,27.61a8.78,8.78,0,0,1-2.17-5.4h1.45v-1H32.33a8.78,8.78,0,0,1,2.33-5.37l1,1,.73-.73-1-1A8.78,8.78,0,0,1,40.62,13v1.34h1V13a8.78,8.78,0,0,1,5.29,2.17l-1,1,.73.73,1-1a8.78,8.78,0,0,1,2.26,5.3H48.49v1h1.45A8.78,8.78,0,0,1,47.83,27.54Z"/><path class="cls-11" d="M43.31,19l-1.87,1.87a.93.93,0,0,0-.58,0l-3.4-3.89-.71.62,3.42,3.91a1,1,0,1,0,1.93,0L44,19.63Z"/></g></svg>